<svg width="1969" height="127" viewBox="0 0 1969 127" fill="none" xmlns="http://www.w3.org/2000/svg">
<path d="M1.58008 125.244C57.5836 75.4631 177.807 78.5812 247.08 84.8788C304.681 90.1152 357.18 97.7491 415.49 92.1578C471.708 86.767 527.328 72.3342 583.899 71.6443C662.893 70.6809 740.285 61.0066 818.811 52.4542C941.307 39.1131 1049.33 -25.0944 1174.49 15.3976C1211.04 27.2216 1241.96 41.1034 1280.7 47.8222C1333.01 56.8973 1386.62 53.7777 1439.51 53.7777C1518.38 53.7777 1596.78 55.2716 1675.08 48.153C1738.77 42.363 1800.96 35.9111 1865.33 35.9111C1891.89 35.9111 1913.58 34.1057 1937.13 46.4987C1949.54 53.0297 1953.95 62.4117 1966.91 53.7777" stroke="black" stroke-width="3" stroke-linecap="round"/>
</svg>
