<?xml version="1.0" encoding="UTF-8"?>
<svg id="Camada_2" data-name="Camada 2" xmlns="http://www.w3.org/2000/svg" viewBox="0 0 37.48 1.9">
  <defs>
    <style>
      .cls-1 {
        fill: #1d1d1b;
      }
    </style>
  </defs>
  <g id="Camada_1-2" data-name="Camada 1">
    <path class="cls-1" d="M.94.95c.28,0,.5.02.73,0,.04,0,.08-.06.12-.06.18,0,.36-.04.53.03.18.08.37.09.55.04.17-.04.33-.03.5-.04.06,0,.11-.02.17.05.04.05.12.06.19-.03.01-.02.04,0,.06,0,.02,0,.04.05.06.03.16-.13.33-.03.5-.06.04,0,.09.03.12-.05,0-.02.05-.03.06,0,.03.05.06.07.1.06h.51c.08-.11.18-.06.27-.05.07,0,.13.04.2.06.07.02.14-.05.2.05.01.02.04-.01.06-.02.08,0,.17-.04.25,0,.04.02.08.04.12.04h1.58s.09.03.14-.04c.04-.05.12-.05.16,0,.06.08.11.05.17.05.11,0,.21,0,.31,0,.06,0,.13-.05.18.06,0,.01.02.01.03,0,.07-.11.14-.02.2,0,.05.01.1,0,.15-.04.05-.05.14-.06.19,0,.07.07.13.05.19.05h1.09c.17,0,.34-.1.51-.06.04,0,.09-.03.12.05,0,.02.04,0,.05-.01.05-.07.09-.04.15-.04.24.02.49.06.72-.01.18-.05.37-.03.55-.05.06,0,.12.05.18.06.06.01.12,0,.18,0,.04,0,.07.02.11-.04.02-.03.07-.04.09-.02.07.09.15.06.22.06h.63c.05,0,.11-.04.15.05,0,.01.04-.02.05-.03.02-.01.04-.04.06-.02.14.12.28.05.42.06.34,0,.67-.01,1.01,0,.09,0,.18-.08.27-.08h.26c.06,0,.13-.04.19.06.02.03.06.03.08,0,.07-.1.15-.05.22-.06.09-.02.18.04.27-.06.02-.03.07.03.11.03.06,0,.13,0,.19,0,.03,0,.06-.04.09-.04.23-.03.46-.06.69-.07.24-.01.47,0,.71-.01.24,0,.47-.02.71,0,.09,0,.18-.08.27.06.08-.08.15-.03.23.06.01.01.04-.03.05-.04.06-.04.11-.17.18-.03,0,0,.01,0,.02,0,.06.02.09-.13.16-.04.04.06.11.03.17.03.06,0,.12,0,.18,0,.06-.01.13.05.19-.06,0-.02.06.06.08.05.14-.03.28.07.41-.07.03-.03.08-.03.11,0,.12.09.23.04.35,0,.16-.05.33-.07.49.06.03.03.05.05.08,0,.02-.03.06-.03.09-.03l1.05-.02c.1,0,.19.1.28.06.04-.02.09.04.12-.05,0-.01.02-.02.03-.01.12.1.23-.05.35,0,.03,0,.05.03.07.04.03.01.06.04.08.02.18-.13.36-.04.55-.08.06-.01.13.04.18-.07,0-.02.04-.02.05,0,.11.13.22.03.33.06.06.02.12-.06.17.05,0,.01.03,0,.04,0,.02-.01.05-.05.07-.05.07,0,.14.06.2.02.07-.05.14-.03.21-.03.04,0,.08.05.12.06.04,0,.08,0,.12,0,.05,0,.11-.02.16,0,.05.02.09-.09.16-.02.05.06.1-.05.15-.06.03,0,.05,0,.08.02.02,0,.04.04.06.04.04,0,.08.01.12-.04.03-.03.09.03.13.03.04,0,.09,0,.13,0,.04,0,.09.02.13,0,.17-.12.35-.05.53-.08.05,0,.1-.05.14.05,0,.02.03.02.05,0,.16-.14.34-.04.51-.08.12-.03.24-.09.36-.08.12,0,.25.03.36-.02.09-.04.19-.08.28-.06.09.02.17-.17.27-.02.09,0,.19-.01.28,0,.08,0,.16-.04.24.05.03.03.08.03.11,0,.09-.1.19-.08.29-.03.02.01.05-.04.08-.04.08,0,.16-.02.25,0,.25.03.48-.09.72-.1.04,0,.09-.08.13-.06.25.11.49-.02.73.04.36.09.71,0,1.06,0,.05,0,.1.08.12.06.06-.08.14-.02.2-.07.1-.1.2-.04.3-.07.07-.02.15.04.21-.07,0-.02.03-.01.05,0,.11.1.21-.06.32-.02.2-.14.41-.06.61-.1.03,0,.06-.03.09-.05.01,0,.03-.03.04-.02.19.12.38.01.57.04.06,0,.12.04.19.05.06.01.13-.03.19.05.02.02.05.01.08,0,.14-.06.26.11.27.39,0,.1-.02.11-.05.15-.06.08-.11.13-.19.12-.06,0-.12-.03-.17.07,0,.02-.03.01-.05,0-.1-.08-.21,0-.3-.06-.07-.04-.14-.03-.21-.04-.06-.01-.11.04-.17-.04-.02-.03-.07.05-.11.06-.09.01-.19.02-.28.01-.28-.03-.56.13-.84.11-.2.13-.41.03-.61.1-.24.09-.48.06-.73.1-.05,0-.09,0-.14-.02-.03-.02-.06-.04-.09-.04-.12,0-.23.02-.35,0-.06,0-.13.06-.19-.05,0-.02-.04-.01-.05,0-.1.12-.21.06-.31.07-.04,0-.08,0-.12-.04-.05-.04-.12-.04-.17,0-.04.03-.07.04-.1.05-.15.05-.31-.07-.45.08-.08-.12-.17-.08-.25-.04-.29.13-.6.05-.89.09-.07,0-.15-.04-.22-.05-.08,0-.15,0-.23,0-.04,0-.09-.04-.12.06,0,0-.01.01-.01.01-.04-.01-.09-.05-.13-.04-.04,0-.07.07-.11.09-.05.02-.09.02-.14.03-.05,0-.1.03-.14-.05-.03.1-.09.05-.13.06-.04,0-.09,0-.13,0h-.15s-.1,0-.15.01c-.07.02-.13.06-.2.07-.07.01-.14.02-.21,0-.09-.01-.18-.04-.27-.05-.04,0-.07.02-.1.06-.05.05-.1.16-.17.02-.01-.03-.06-.02-.08,0-.19.15-.39.03-.58.08-.11-.1-.21-.03-.32,0-.16.05-.33.07-.49.01-.17-.06-.33-.02-.5-.04-.05,0-.1.03-.14-.06,0-.02-.04-.01-.06,0-.13.1-.26.08-.4.02-.07-.03-.15.01-.23.05-.12.06-.25.02-.38.02-.06-.11-.1,0-.12.06-.04.07-.07.08-.12.08-.06,0-.11-.02-.17.06-.03.04-.09.03-.13,0-.04-.05-.06-.03-.1,0-.04.04-.09-.06-.15-.06-.06,0-.13.07-.19-.05,0-.01-.02,0-.03,0-.11.13-.23-.05-.34,0-.34-.13-.67,0-1.01-.05-.14-.02-.28-.1-.42-.05-.28.12-.57.05-.86.07-.06,0-.13.06-.19-.06,0-.02-.04-.01-.05,0-.09.11-.18.08-.27,0-.02-.02-.06-.01-.08.01-.04.08-.08.05-.12.05-.05,0-.12-.07-.14-.03-.06.09-.1,0-.15-.02-.03,0-.06.01-.09.03-.01,0-.03.04-.04.03-.1-.1-.19.05-.29,0-.02,0-.04,0-.06-.02q-.23-.13-.51-.06c-.08-.14-.17.07-.26-.04-.03-.04-.09-.03-.13,0-.17.13-.34.03-.51.07-.04,0-.06-.09-.11,0-.02.03-.08-.05-.12-.05-.06,0-.12-.05-.17.05-.02.04-.07,0-.11.02-.05.01-.1-.02-.15.05-.03.04-.09.04-.13,0-.14-.15-.26-.01-.38.04-.04.02-.06.03-.1,0-.06-.03-.13-.07-.17-.03-.07.08-.15.05-.22.06-.13.01-.25,0-.38,0-.14.01-.29-.02-.43.05-.08.04-.18.08-.27-.05,0-.01-.04.06-.07.06-.18,0-.36.01-.54,0-.04,0-.09-.13-.13-.03-.04.11-.09-.1-.12.03,0,.02-.04.02-.06,0-.21-.13-.43-.03-.65-.06-.05,0-.11.04-.15-.06-.13.12-.28-.13-.4.07-.09-.03-.19.07-.29-.06-.01-.02-.05.01-.06,0-.06-.06-.09.13-.16.03-.04-.06-.12-.02-.17-.03h-.17s-.18,0-.18,0c-.06,0-.12,0-.18,0-.12.02-.24.1-.37.07-.01,0-.04.01-.04.03-.04.17-.1.07-.15.03-.04-.04-.07-.06-.1-.06-.1,0-.21,0-.31,0-.06,0-.13.05-.19-.06-.02-.03-.07-.03-.1,0-.13.11-.27.04-.4.06-.06,0-.12,0-.18,0-.05,0-.09.07-.14,0-.22.13-.45.05-.68.06-.23.02-.45,0-.68,0-.06,0-.12.05-.17-.06,0-.02-.05-.02-.06,0-.03.06-.06.09-.09.01,0-.01-.04,0-.05.02-.05.04-.09.04-.14,0-.04-.03-.09-.05-.12-.03-.1.06-.19.12-.29,0-.01-.01-.05.06-.07.06-.08-.02-.17.04-.25-.05-.03-.04-.09,0-.13-.02-.07-.02-.14.04-.22,0-.08-.04-.16,0-.25,0h-.25s-.25,0-.25,0h-.25s-.25,0-.25,0h-.25c-.06,0-.11-.02-.17-.06-.15-.11-.33-.1-.55-.01-.02,0-.03,0-.05,0-.21,0-.43.02-.64-.02-.09-.01-.19-.07-.28-.06-.06,0-.12-.01-.19.06-.05.06-.12-.04-.19.06-.02.04-.08.04-.11,0-.1-.11-.2-.05-.3-.06-.12-.01-.23-.01-.35,0-.06,0-.11-.03-.17.05-.03.04-.1.01-.14-.03-.06-.06-.13-.05-.19-.02-.13.05-.13.06-.26,0-.02,0-.03,0-.05,0-.16,0-.32-.05-.48,0-.13.04-.26.04-.38.04-.05,0-.11.05-.15-.06,0-.02-.03-.02-.05,0-.11.12-.22.05-.33.05-.11,0-.21.1-.32.07-.1-.02-.21,0-.31-.01C.03,1.71,0,1.65,0,1.34c0-.25.05-.3.18-.35.27-.11.54-.02.76-.05Z"/>
  </g>
</svg>