<?xml version="1.0" encoding="UTF-8"?>
<svg id="Camada_2" data-name="Camada 2" xmlns="http://www.w3.org/2000/svg" viewBox="0 0 62.7 259.73">
  <defs>
    <style>
      .cls-1 {
        fill: #1d1d1b;
      }
    </style>
  </defs>
  <g id="Camada_1-2" data-name="Camada 1">
    <g>
      <path class="cls-1" d="M59.42,1.15c-.06-.42-.43-.16-.51-.2.24.64.62.16.51.2Z"/>
      <path class="cls-1" d="M59.7,8.36l-.11-.19c-.01.41-.03.82-.09,1.23.09-.35.15-.69.2-1.04Z"/>
      <path class="cls-1" d="M55.67,14.76c1.02-.14,1.66-2.29,2.56-3.3l.26-.1-.19-.82c-.71,1.44-1.72,3.41-2.63,4.22Z"/>
      <path class="cls-1" d="M51.78,16.92c.38,0-.42.83.71-.67-.09.05-.12.06-.17.09-.11.13-.26.3-.54.58Z"/>
      <path class="cls-1" d="M52.33,16.33c.53-.63-.53.25,0,0h0Z"/>
      <path class="cls-1" d="M49.86,19.3l.57-.99c-.28.06-.97.77-.81.41-.67.93-.39.87.25.57Z"/>
      <path class="cls-1" d="M49.53,20.43l.31-.5c-.12.03-.24.13-.31.5Z"/>
      <path class="cls-1" d="M50.51,18.88l-.66,1.05c.19-.04.38.1.32-.47.09.22.1-.1.34-.58Z"/>
      <path class="cls-1" d="M51.05,18.44c.53-.35,1.14-.88.58.11,1.34-1.63.76-1.73-.58-.11Z"/>
      <path class="cls-1" d="M55.99,15.54l.68-.51.25-.71c-.12.36-1.13,1.12-.93,1.22Z"/>
      <path class="cls-1" d="M44.89,24.39c.07.15.56-.05.77.01l.41-.77c-.36.27-.97.84-1.18.75Z"/>
      <path class="cls-1" d="M45.66,24.4c-.21.38-.4.78-.6,1.16.73-.88.78-1.11.6-1.16Z"/>
      <polygon class="cls-1" points="49.98 21.11 50.94 19.25 49.73 21.41 49.98 21.11"/>
      <path class="cls-1" d="M41.89,28.46c.03-.29.09-.55.13-.83-.12.47-.21.96-.3,1.44l.17-.61Z"/>
      <path class="cls-1" d="M40.22,31.54c0-.67-.79.54-.69-.12-.39.92-.46,1.84-.51,2.63.16-.81.5-1.63,1.19-2.51Z"/>
      <path class="cls-1" d="M38.97,35.4c.05-.41.02-.87.06-1.34-.09.43-.09.89-.06,1.34Z"/>
      <path class="cls-1" d="M43.66,27.27c-.14.02-.44.05-.95.61l.65-.19c.09-.13.19-.28.3-.42Z"/>
      <path class="cls-1" d="M43.38,27.69h-.02c-.33.46-.55.78-.65.92.08-.12.29-.39.67-.92Z"/>
      <path class="cls-1" d="M43.74,27.17s-.05.07-.08.1c.06-.01.09-.03.08-.1Z"/>
      <path class="cls-1" d="M47.52,23.29c-.31.71-1.09,2.06.14,1.15.12-.59-.59-.08-.14-1.15Z"/>
      <path class="cls-1" d="M44.55,26.98c.3-.35.59-.69.9-1.02-.1-.05-.39.04-.25-.32-.23.44-.45.89-.66,1.34Z"/>
      <polygon class="cls-1" points="44.26 27.6 44.55 26.98 44.22 27.37 44.26 27.6"/>
      <path class="cls-1" d="M40.17,33.06c-.04.68-.32,1.31-.48,2.1.15-.41.31-.8.49-1.19.18-.39.31-.79.49-1.16-.07-.15-.15-.59-.5.25Z"/>
      <path class="cls-1" d="M41.64,30.34s-.03.09-.04.13c.07-.06.11-.11.04-.13Z"/>
      <polygon class="cls-1" points="39.26 43.04 39.31 42.9 39.23 42.89 39.26 43.04"/>
      <path class="cls-1" d="M40.8,32.72c.34-.53.38-.91.43-1.28-.18.43-.34.9-.56,1.38.03.07.07.1.13-.09Z"/>
      <path class="cls-1" d="M38.7,37.66c.15-.33.29-.7.44-1.09-.19.3-.53.95-.44,1.09Z"/>
      <path class="cls-1" d="M41.4,30.6s.02-.06.03-.09c-.18.14-.13.13-.03.09Z"/>
      <path class="cls-1" d="M41.4,30.6c-.1.31-.12.58-.16.84.15-.34.27-.67.36-.97-.06.05-.14.1-.2.13Z"/>
      <path class="cls-1" d="M42.44,44.52c-.4.04-1.21-1.33-.94-2.68-.4-1.21-1.69-.34-2.19,1.06.18,0,.31.01.87,1.33.04-.53-.08-3.15.46-2.04.51,1.73.15,1.47.16,2.38.14-.43.45.09.84.59.37.51.82,1.02,1.1.72-.25-.44-.48-.88-.71-1.34.1-.06.43.4.41-.02Z"/>
      <path class="cls-1" d="M39.1,40.07l-.06-.62c-.05.7-.24,1.2-.46,2.19.29,1.04.52,1.2.65,1.25-.18-.99-.21-2.02-.19-3.03l.06.21Z"/>
      <path class="cls-1" d="M39.38,36.71c.17.28.23.77.34,1.1.12.33.28.47.55.08.28-1.66-.17-1.24-.07-2.28-.54,2.75-.09-.87-.76,1.09.01-.58.15-1.07.26-1.54-.19.49-.4.95-.55,1.41.02-.02.03-.04.04-.06h0s0,0,0,0c.08-.11.12-.15.06-.01,0,.01,0,.05,0,.06.06.03.1.1.14.16-.24.81-.13.11-.14-.16-.02-.01-.03-.04-.06-.05h0c-.04.5-.12.98-.13,1.48v1.47c.13-.61.09-1.39.33-2.74Z"/>
      <path class="cls-1" d="M47.5,26.07c-.08.04-.1.01-.13,0-.06.16-.08.23.13,0Z"/>
      <path class="cls-1" d="M46.64,26.72c.07-.18.03-.41.44-.85.43-.32.16.13.28.2.14-.35.58-1.17-.32-.43l-.07.18c-.76.7-2,1.43-1.93,1.26.49-.01.87-.06,1.6-.35Z"/>
      <path class="cls-1" d="M42.57,31.23c-.3.67-.55,1.37-.79,2.07l.8-.85-.22-.05c.65-1.06.29-.95.21-1.17Z"/>
      <path class="cls-1" d="M39.1,43.36c-.17-.07-.34-.15-.51-.24.29.44.61.84.93,1.23-.15-.32-.28-.66-.42-1Z"/>
      <polygon class="cls-1" points="39.96 46.29 39.55 46.32 40.04 46.98 39.96 46.29"/>
      <path class="cls-1" d="M46.99,144.14l.03.63c0-.3,0-.49-.03-.63Z"/>
      <path class="cls-1" d="M47.52,139.65l-.18-.13c.09.22.16.31.18.13Z"/>
      <path class="cls-1" d="M16.82,98.69c-.75.69-1.71,1.46-1.24,1.53l.51-.1c.2-.64.47-1.08.74-1.43Z"/>
      <path class="cls-1" d="M36.44,106.62c-.06-.08-.12-.15-.19-.23-.26.06-.5.11-.72.16.27.01.59.03.91.06Z"/>
      <path class="cls-1" d="M37.81,105.29c.36.27.69.57,1.02.87-.2-.23-.51-.54-1.02-.87Z"/>
      <path class="cls-1" d="M42.81,168.48l.25.82c.28-1.11-.06-.68-.25-.82Z"/>
      <path class="cls-1" d="M43.46,72.08c-.28.51-.5.9-.69,1.25.48-.43,1-.97.69-1.25Z"/>
      <path class="cls-1" d="M42.63,141.85c.04.38.11.55.2.55-.03-.39-.09-.62-.2-.55Z"/>
      <path class="cls-1" d="M41.96,74.52c.09-.04.17-.1.26-.14.17-.33.34-.65.55-1.05-.36.33-.68.61-.81,1.2Z"/>
      <path class="cls-1" d="M4.89,226.78s-.07.11-.1.15c.05.03.07-.04.1-.15Z"/>
      <path class="cls-1" d="M.46,251.76c-.05-.28-.06-.73-.07-1.14-.02.21-.03.55.07,1.14Z"/>
      <path class="cls-1" d="M43.47,56.33c-.13-.49-.06-.07,0,0h0Z"/>
      <path class="cls-1" d="M44.42,53.39c.08.1.17.16.27.14-.11-.01-.2-.06-.27-.14Z"/>
      <path class="cls-1" d="M39.21,79.58s-.03.01-.05.02c.19,0,.16,0,.05-.02Z"/>
      <path class="cls-1" d="M43.49,55.54c0,.2,0,.42.03.66.01-.11,0-.31-.03-.66Z"/>
      <path class="cls-1" d="M43.31,55.69c-.02-.17-.04-.31-.07-.44-.09-.04-.11.02.07.44Z"/>
      <path class="cls-1" d="M43.63,57.02c-.06-.29-.1-.55-.12-.82,0,.1-.02.15-.04.13.03.15.08.35.16.69Z"/>
      <path class="cls-1" d="M11.03,182.95s-.06.05-.1.08c-.16.57-.05.35.1-.08Z"/>
      <path class="cls-1" d="M17.21,114.36s-.01-.04-.01-.06c0,.03-.02.06-.02.08l.04-.02Z"/>
      <path class="cls-1" d="M17.44,116.33c-.51-.85-.47-1.34-.27-1.96-.43.19-.89.38-1.3.58.53.48,1.05.94,1.58,1.38Z"/>
      <path class="cls-1" d="M45.47,154.86l.64-1.39c.33,1.87-.14,3.11.66,1.84-.65-.23-.43-1.65-.22-3.08.19-1.43.39-2.85-.27-3.06l.42-.92c-.05.27.02.33-.03.6.91-1.79-.75-1.53-.25-3.92.21-.83.48-1.39.57-.8l-.11-1.92c.09-.54.31-.38.22.16.08-.96.15-1.92.2-2.88l.04.03c-.17-.43-.4-1.39-.51-1.85.26-.71.11.38.3.21l-.19-1.62c.41-.62.64.73.49,1.82,1.47-1.37-.2-1.35.81-4.5l.07,1.52c.83-.92.66-2.12,1.22-3.81-.26.4-1.43,3.35-1.65,1.59.14-.48.22-1.12,0-2.07.48.02.42-.9.44-2.05l.64.11c-.14-1.25-.46-1.16-.72-1.9.11-1.38.61-1.66,1.03-1.99.12-2.28-.81,1.56-.91-1.13.22-1.9-.06-3.29-.82-5.56-.04-1.41.43.17.52-.36-.24-.38-.5-.76-.76-1.12-.07-.3.11-.24.2-.21-.47-.97-.61.06-1.28-1.42-.4-.09-.45-.94-.7-1.99-.25-1.04-.77-2.27-1.74-2.82-.17-.51.46-.05.56-.33-1.11-.96-1.62-1.3-2.1-1.59-.46-.29-.93-.5-2.02-.91-.44-.47-.88-.97-1.38-1.4.49.57.26.73-.27.72-.27,0-.6-.05-.97-.11-.37-.05-.76-.1-1.15-.15.32.41.58.76.76.96l-1.09-.34-1.1-.25c-.21-.2.06-.32.51-.44-.16,0-.32-.01-.44-.01-.7-.46-.2-.72.51-.83.23.23.45.46.65.68.68-.13,1.39-.24,1.44-.64-.18,0-.49-.09-.82-.2.19-.03.32-.07.28-.16-.05-.1-.35-.09-.79-.08l-.28-.88-.23.21c-1.01-.51-2.07-.96-3.2-1.26-2.58.39-4.62,1.41-7.74,2.86.63-.81-.11-.87-.29-1.47.6.13,1.25-.16,2.05-.48.79-.32,1.75-.67,2.76-.64-1.05-.03-.85-.29-.59-.44-1.2.33-2.36.71-3.42,1.28-.08-.52-.84-.15-1.8.02.52.33-.04.72-.81,1.2-.78.47-1.77,1.1-2.24,1.63-.13-.11-.18-.28-.01-.55.17-.26.56-.63,1.35-1.03-1.04.15-1.41.79-1.73,1.39-.3.64-.56,1.21-1.44,1.62.3-.29.49-.41.51-.64-.56.83-2.3,2.44-2.15,1.84l.28-.32c-.86.88-1.94,2.34-2.6,3.89-.7,1.53-.89,3.1-.78,3.84l2.11.21c-.08-.19-.17-.32-.28-.37.08-.02.64.18.97.36l-3.46-.34c-.09-.05-.16-.12-.18-.17l.04.14,3.76.37c-.89-1.4-1.83-2.92-2.56-4.53.69.46,2.56-.83,2.78,1.23.18-.57.32-1.27.24-2.51-.18.37-1.17.85-1.19.29,1.06-1.38.6-.99,1.61-2.67-.28.55-1.27-.33-.99-1.27.13.19,1.12.19,1.15.55-.16-.84-.39-1.72-.49-2.58.01.63.89.36,1.35-.04-.27.17.6-1.93.77-2.53-.2.28-.41.55-.6.84.55-1.21.43-1.96.3-2.75-.12-.77-.19-1.55.41-2.79.07.41.93,1.35,1.65.21-.11-.4-.39-1.32-.52-2.48-.15-1.16-.01-2.48.47-3.68.17-.08.36-.14.55-.2l.85-1.77c0,.76-.19,2.03-.27,3.39-.11,1.32-.22,2.7-.3,3.63.72-.73.43-.07,1.2-1.33.55-.27-.05.91-.22,1.3.6-.96,1.31-1.84,1.97-2.75-.65-.26,1.01-2.49.49-2.73-.55,1.17-1.16,2.26-1.61,3.45-.32-.12-.44-.84-.25-1.78.23-.91.69-2.12,1.57-3.03.62-.31.61,1.13.83,1.22.03-.38,1.17-2.07,1.45-2.11-.16.33-.28.68-.41,1.02.52-.44.74-.99,1.03-1.53.29-.54.63-1.1,1.45-1.43.46-.35,1.83-.47,1.64-.84-1.17.02-2.94-1.59-2.82-2.46.11-.04.79-.48,1.62-.82.82-.35,1.69-.69,2.07-.75,1.11-.1-.29,2.04.67,1.95-.08-.17.19-.67.32-.86.59-.21.13.6,1.15-.19-.2-.68,2.23-1.42.19-.82.96-.89,1.22-.62,2.51-1.39-.65-.14.47-2.01,1.6-2.76,0,.19.38.26.55.28,1.22-.59,2.18-1.02,3.09-1.54.89-.53,1.77-1.13,2.56-2.22.3-.07,1.13-1.17,1.1-.53.09-.43.05-.86.29-1.66.51-.7.41-.25.28.28-.13.52-.34,1.11.25.62-.17-.13-.07-.72-.02-1.42.06-.7.09-1.5.03-2.08-.33.14-.43.77-.52,1.54-.08.76-.19,1.67-.35,2.28-.38-.18-.54-.83-.67-1.68-.13-.86-.26-1.95-.33-3.25,0-2.09.63-.85.55-1.22.49-3.91-1.15-3.43-.45-6.56.54-1.25,1.07-.06,1.46-.33.2,1.71-.41,2.6-.47,3.74l.34-1.4c.16.55.21,1.7,0,2.31.28-.52.45-2.19.49-4.1.06-1.92-.08-4.08-.13-5.64-.26-.52-.65-1.39-.77-.91.08.31.19.61.26.93-.27.92-.92-1.63-.9-.42-.55-1.17-1.36-2.29-1.77-4.01l.45-.54c-.15.1.08,1.21.42,1.62-.48-.59-.21-2.86-1.28-3.31l.09,1.33c-.76-1.06-2.02-2.26-2.45-3.93-.29.94.2.34,0,1.71.21-.64.61.35.98,1.23.37.88.69,1.66.82.77-.33,1.37.43,1.97.2,3.5.17-.1.24-.58.48.6.07.04.18.14.24.21,0,.04,0,.05,0,.08,0-.03,0-.04,0-.07.04.04.05.05,0-.03.02-.3.04-.55.13-.68.65.44,1.05,2.39,1.35,3.05,0,.76-.27-.28-.43.15.16.32.32.64.47.97-.42.15-.61,2.03-.99.31.03.52.06,1.04.06,1.56-.22.93-.35,2.21-.2,3.03-.13.75.38,1.98.07,1.28.04.86.06,1.74.07,2.62h-.11c-.16,1.31-.07,2.7-.19,3.88-.12,1.21-.53,2.23-1.5,2.75-.3.53-.7,1.13-1.83,1.72l-.42-.2c-.71.63-2.93,1.14-3.22,1.74-.79-.21-2.15.51-3.51,1.34-1.31.93-2.66,1.97-3.54,2.59l.24.45c-1.21.85-2.16,1.91-3.36,3.27l.39.25c-.43.67-1.16,1.33-2.02,2.03-.83.74-1.74,1.57-2.5,2.53-.05-.25.4-.69.77-.96-.68.39-1.21.94-1.65,1.57-.44.63-.85,1.28-1.16,1.99-.32.7-.63,1.39-.98,2.02-.34.64-.68,1.24-1.17,1.73-.18.66-.47,1.04-.76,1.42.03-.06.04-.11.05-.16-.03.06-.08.15-.12.24-.19.23-.4.46-.61.73.22-.21.41-.41.55-.6-.21.47-.49,1.19-.71,1.92l-.57.11c-.02.06-.03.11-.05.17-.44.63,0,.65.47.42-.07.38-.11.74-.1,1.04-.47.14-.59.62-.73,1.13-.12.51-.22,1.05-.75,1.32.13.31-.13,1.23-.22,2.17-.1.94-.13,1.88.24,2.16-.11,0-.22.2-.13-.19-.31.78-.49,1.6-.4,2.37l-.66.25c.15.64.37,1.28.58,1.91-.48,1.05-.74,1.51-1.1.36.21,1.36.27,1.9.33,2.39.05.49.11.93.42,2.02l2.13.21s0-.03,0-.05l.17.09,1.87.92-4.33-1.16-.2-.05s0,.04,0,.06l.09,12.81,2.78-12.52c.08-.34.05-.81.08-1.23.06-.42.14-.8.36-.94.66-.58,1.45-2.35,3.01-4,1.48-1.68,3.71-3.14,5.67-3.49-.57-.4-.09-.46.51-.5.6-.02,1.29,0,1.27-.45.29.22.83.26.28.63.91-.34,1.66-.28,2.29-.24.32,0,.62.04.93.01.31-.04.62-.1.99-.24.18.3-.46.34-.29.53.15-.03.64-.16.8.04.16.19-.32.18-.62.26,1.85.26,2.29-.37,2.7-1.11.92.71,1.38.87,2.34.76.23.42.63.93-.57.42.33.17,1.27.78,2.1,1.4.42.3.8.62,1.13.81.31.21.56.31.68.21.07.26.69.78.88.88.53.65.79,1.02,1.03,1.4.24.38.49.75.89,1.46l-.12-.45c.48.1.72.39.84.82.14.42.23.94.48,1.57h-.09c.18,1.55.26,1.87.39,2.18.11.31.24.64.08,2.22l.46-.21c.53.1.44.83.24,1.74-.2.91-.51,2-.34,2.95l.29-.67c.35,1.04-1.48,2.83-1.65,3.85-.1.22-.13-.36-.18-.68-.72,2.66.62.37.67,2.39-.36.35-.83-.52-.97.82-.3.65.85,3.99.03,5.78.29-.38.59-.76.71.19-.03,1.45-1.35,3.76-.69,5.13-.09.17-.17.23-.23.23.09,1.11-.09,3.58.25,4.3-1.75.76-.26,6.88-1.79,6.6-.16,1.11-.36,2.22-.54,3.33l-.14-.12c-.52,2.09-.32,2.91-.12,3.73-.21.47-.27.08-.34.02-.98,3.01-1,3.32-.89,6.07l-.55.15c.07.51-.77,2.18-1.44,4.14l3.44-.69c-.62-.89-1.34-1.79-2.16-2.5.06-.01.18-.02.39.13-.33-.3-.64-.64-.94-1.01-.39-.48-.86-1.12-1.29-1.71l-.66-.93c-.04-.11-.15-.07-.23-.07h-.27s-.54.02-.54.02c-.75.02-1.48.05-2.19.07-.29.03-.57.06-.84.08-.24.03-.47.06-.69.09-.45.06-.86.15-1.21.29-.71.27-1.23.62-1.42,1.15-.73.42-1.46.77-2.14,1.23,2.96-.93-.16.86,1.13.72-1.05.51-3.06.67-1.74.01h.25c.08-.53-.87-.29-1.8.15-.95.39-1.9.93-2.01.63-5.34,3.08-10.05,7.01-13.46,11.71l.99-.1c-.41.52-.8,1.06-1.17,1.6-.43.34-.87.27-.05-.9-.38.2-.65.75-.8,1.26-.15.52-.16,1.08-.11,1.12-.85,1.25-.91.92-.79.33.11-.58.41-1.41.16-.99l-.58,1.19.22-.22c-.13.52-.09.86-.12,1.29-.02.21-.05.44-.12.73-.08.29-.18.64-.26,1.13-.36,1.21-.55.58-.66,1.08-.06,0-.08.17-.03.79-.06,1.02.11,2.02.32,2.96.06-.4.21-.84.33-1.25.22.61.39,1.22.53,1.52.13.31.22.29.36-.38-.32,1.04.63,3.37,1.56,5.26.94,1.92,1.6,3.7,1.49,4.17.76,1.2.79,2.6.54,4.22.2-.38.89-.58.53.91-.63-.41-.82.26-1.19.99-.36.77-.89,1.79-1.59,2.13.53-.36.1.63-.31,1.58-.41.94-.77,1.84.05,1.27-.71,1.11-.48-.17-1.23.56-1.02,3.01-3.7,5.9-5.17,9.75.14.12.65-.39.55.51-.54.55-1.08,1.11-1.6,1.73-.18.85.71,1-.24,2.38.2-.19.49-.46.41.11-.31,1.01-.53,2.13-.36,3.42.05.32.1.64.22.97l.25.72c.14.36.24.76.33,1.17.37,1.63.42,3.49.36,5.37-.14,3.82-.86,7.63-1.71,11.76.36-1.12.37-.37.39.49.07-.56.43.01.67-.1-.21,1.14-.37,2.32-.35,3.58.4.27.6,1.23,1,2.16.17.46.44.9.66,1.23.26.32.49.51.68.5-.26-.31-.54-.63-.74-.98.71.53.77-.22.89-.96.14-.77.39-1.58.88-1.63-.6-.53-.48-1.55-.28-2.61.19-1.07.43-2.21-.1-3.46.23-.52.28.47.52.2-.37-.63-.41-1.39-.09-2.77l.09.17c.14-1.97.4-3.39.66-4.88.26-1.5.6-3.07.68-5.53l-.47.37c.03-1.04.16-1.27.23-1.79-.42-.58-.34.18-.32.92.03.75-.02,1.49-.41.96.46-.67.45-2.53-.05-4.4-.12-.47-.28-.93-.44-1.37-.05-.13-.05-.17-.06-.22l-.04-.15c-.03-.09-.01-.22-.02-.31,0-.42.18-.81.45-.94.12-1.12-.6.31-.44-.88l.35-.27-.3-.4c.26-.83.77-1.15,1.01-1.1-.1.19-.1.59-.14.8.58-.93.94-3.06,1.24-3.4-.24.39-.46.77-.68,1.16,1.13-3.65,3.96-7.74,5.29-11.53l-.34.16c.53-1.44.86-1.95,1.23-2.5.36-.56.8-1.1,1.34-2.84v.14c.02-.38.09-.83.14-1.3.04-.46.11-.94.21-1.43.05.47.25.07.45-.31.19-.38.32-.76.43-.11-.05-.96-.11-1.55-.16-1.94-.07-.39-.16-.57-.24-.72-.18-.28-.31-.45-.92-1.51l.25-.6c-.49-.71-.67-.72-1.33-2.3.8,1.21.14-1.25,1.09.12-.28-1.9-1.08-3.04-1.66-3.89-.58-.86-1.04-1.54-.73-2.42-.74-.48-.63.19-.37.94.29.74.73,1.53.44,1.19.03.81-1.28-.83-1.53-1.85-.29-1.02.49-2.11.59-4.11-.05.21.07.23.05.44.08-.39.15-.75.12-1.18-.03-.42.18-.87.51-1.27-.33-.8.68-1.2.07-1.76-.3.7-.66,1.38-.79,2.08.07-.3.04-.63.1-.97.06-.34.12-.69.21-1.08.08-.38.25-.79.49-1.19.25-.4.54-.84.98-1.24.01.23-.2.93-.36,1.38.56-.43.6-1.16,1.22-1.58.27.32-.17.92-.64,1.69-.23.38-.54.8-.71,1.19-.16.39-.29.78-.31,1.12.31-.2.45-.78.62-1.23.22-.47.4-.75.55-.21-.31-1.5,1.55-2.06,2.03-3.94l.29.39c.12-.26.3-.87.67-1.25-.06.37-.1.74-.14,1.11.52-1.45,2.16-1.75,2.91-2.9-1.99,2.04-.86.05-1.96.69,1.02-1.52,1.62-1.66,2.29-1.77.66-.12,1.36-.23,2.81-1.53-.37.37-1.71,1.04-1.22.34.63-.42,1.54-.86,2.05-.93,2.04-1.57-.61-.18.12-1.05,1.08,0,.92-.93,1.84-1.67l.25.41c1.36-.62,1.42-.9,1.46-1.19.04-.28.04-.58,1.35-.97-.27.34-.51.73-.75,1.09.39-.26.78-.52,1.19-.74l-.04.61c1.2-.96,1.71-1.02,3.13-1.31-.43-.24-.07-.88,1.22-1.24.94.09-.39.53,1.41.12-.36.39-.72.78-1.59.57-.04.17-.32.4-.36.57.49.05,1.06-.1,1.59-.2.27-.07.52-.13.75-.19.19-.05.24-.08.29-.09-.14-.02-.31-.03-.41-.04.24-.1.28-.17.38-.24.09-.07.19-.13.3-.2l.36-.21.2-.11c.06-.01.1.03.16.04.05.35-.15.34-.29.38.16.12.39.06.68.35-.35.19-.66.46-.92.42.1,0,.22.04.35.09.02-.03.25.2.41.34l.51.47c-.02.25.51,1.4.18,1.21.32.56.89,1.09,1.51,1.64l4.85,4.29.45-5.36c.1-1.17.19-2.44.65-3.56-.05-.12-.07-.35-.01-.79.56-1.84,1.43-3.4,1.4-5.76l.97-1.12c.21-1.79-1.22,1.53-.88-1.44.21-2.11.75-.65,1.09-1.34-.15-1.11-.51-3.02.38-4.83.02.65-.17,1.13-.22,1.73ZM47.87,132.93c.07.43.32,1.31.02,1.6-.52-.53-.23-.88-.02-1.6ZM33.58,104.7c.36-.09.86.11,1.36.47-.41-.09-.86-.25-1.36-.47ZM44.38,62.04s.01.03.02.04c-.2.89-.12.57-.02-.04ZM44.56,60.2c-.08-.18-.14-.16-.21-.08.13.12.15.53.13,1,.12-.13.2-.37.08-.92ZM5.76,187.77c.04-.16.09-.31.16-.45.06,1.05,0,.75-.16.45Z"/>
      <path class="cls-1" d="M37.63,105.43c.08.13.07.23.06.32.2,0,.25-.07-.06-.32Z"/>
      <path class="cls-1" d="M42.77,168.33l-.02.06s.04.07.07.09l-.05-.15Z"/>
      <path class="cls-1" d="M33.62,85.07c-.34.18-.57.24-.73.25.05.11.25.08.73-.25Z"/>
      <path class="cls-1" d="M41.5,51.24l.58,1.07c-.24-.53-.22-.76-.27-1.07-.09.07-.15.35-.31,0Z"/>
      <path class="cls-1" d="M41.4,39.7c-.07-.18,0-.39-.04-.57l-.23.04c-.04.8.2,1.34.27.53Z"/>
      <path class="cls-1" d="M42.53,49.55c.34-.25-.1-.92-.51-1.72.02.05.04.1.06.15-.63-.03-.09.79.45,1.58Z"/>
      <path class="cls-1" d="M41.93,47.64c-.12-.25-.23-.51-.31-.77-.25-.02.07.34.31.77Z"/>
      <path class="cls-1" d="M44.09,57.95c.06-.39-.55-.16-.41-.39-.55-.36.93,2.41.41.39Z"/>
      <polygon class="cls-1" points="43.48 48.38 43.14 48.86 43.71 49.16 43.48 48.38"/>
      <path class="cls-1" d="M45.56,54.95c-.07-.46-.16-.91-.26-1.37-.07.05-.18-.11-.28-.3.27.81.41,1.73.54,1.66Z"/>
      <path class="cls-1" d="M45.02,53.29c-.13-.42-.3-.82-.46-1.02.08.22.29.7.46,1.02Z"/>
      <polygon class="cls-1" points="44.37 50.09 44.43 50.51 44.77 51.44 44.37 50.09"/>
      <path class="cls-1" d="M45.72,69.8c0,.51-.01,1.02-.04,1.52.15.18.32-.22.31-.79-.08-.38-.09-.94-.28-.73Z"/>
      <path class="cls-1" d="M47.49,65.3c-.13.41-.24.43-.43.65l.62.09-.19-.75Z"/>
      <path class="cls-1" d="M47.25,69.79c.16.16.24,2.34.42.33-.15-.18-.15-1.72-.42-.33Z"/>
      <polygon class="cls-1" points="30.76 85.13 31.06 84.88 30.38 84.12 30.76 85.13"/>
      <path class="cls-1" d="M20.96,102.08c.95-1.43-.4-.63.54-1.9-.04-.47-.77,1.04-.78.58-.23,1.05-.55,1.49.24,1.32Z"/>
      <path class="cls-1" d="M20.72,100.77c.04-.17.07-.35.09-.55-.07.3-.09.45-.09.55Z"/>
      <path class="cls-1" d="M.98,256.78c.13.49.32.99.55,1.49-.11-.35-.14-.71-.2-1.05-.13-.14-.24-.29-.35-.43Z"/>
      <path class="cls-1" d="M3.16,258.82c-.08.23-.17.48-.23.71.37.08.73.15,1.08.19-.26-.21-.81-.6-.85-.91Z"/>
      <path class="cls-1" d="M49.36,129.72l-.15-.1c-.18.18-.21.45-.26,1.01l.41-.91Z"/>
      <polygon class="cls-1" points="47.43 145.7 47.48 145.43 46.83 145.86 47.43 145.7"/>
      <path class="cls-1" d="M45.92,159.15c.14-.54.14-1.2.27-1.74-.12,1.21-1.02,1.74-.27,1.74Z"/>
    </g>
  </g>
</svg>