<svg xmlns="http://www.w3.org/2000/svg" viewBox="0.495981 0.498333 167.6 167.4">
	<path d="M84.11,83.26c-7.25-7.17-13.98-12.9-20.19-17.4-7.28-9.86-13.1-23.1-10.41-38.76C58.37-1.17,91.17-3.59,105.45,4.61c9.18,5.27,22.85,24.06-3.08,59.58-9.91,7.41-16.33,16.23-18.26,19.06ZM141.5,53.51c-15.86-2.73-29.24,3.28-39.14,10.68-4.44,6.08-10.05,12.66-17.03,19.74,2.87,1.95,11.87,8.51,19.34,18.63,35.35,25.66,54.05,12.03,59.31,2.88,8.2-14.27,5.79-47.08-22.48-51.94ZM63.92,65.85c-35.35-25.66-54.05-12.03-59.31-2.88-8.2,14.27-5.79,47.08,22.48,51.94,15.86,2.73,29.24-3.28,39.14-10.68,4.44-6.08,10.05-12.66,17.03-19.74-2.87-1.95-11.87-8.51-19.34-18.63ZM84.11,83.26c-.41.6-.61.93-.61.93.01.01.02.02.03.03.26-.26.51-.52.77-.78-.06-.06-.12-.12-.18-.18ZM66.23,104.23c-25.93,35.52-12.26,54.31-3.08,59.58,14.27,8.2,47.08,5.79,51.94-22.48,2.69-15.67-3.13-28.91-10.41-38.76-6.21-4.51-12.93-10.24-20.19-17.4-1.93,2.84-8.35,11.65-18.26,19.06ZM84.29,83.44c.26.26.52.51.78.77.09-.09.18-.18.27-.27-.59-.4-.93-.61-.93-.61-.04.04-.08.08-.11.12ZM83.26,84.49c.59.4.93.61.93.61.04-.04.08-.08.11-.12-.26-.26-.52-.51-.78-.77-.09.09-.18.18-.27.27ZM84.49,85.17c.41-.6.61-.93.61-.93-.01-.01-.02-.02-.03-.03-.26.26-.51.52-.77.78.06.06.12.12.18.18Z" stroke="#FF0000" stroke-width="0.1" fill="#000000"/>
</svg>